<svg xmlns="http://www.w3.org/2000/svg" version="1.1" xmlns:xlink="http://www.w3.org/1999/xlink" xmlns:svgjs="http://svgjs.com/svgjs" width="560" height="1440" preserveAspectRatio="none" viewBox="0 0 560 1440"><g mask="url(&quot;#SvgjsMask1029&quot;)" fill="none"><rect width="560" height="1440" x="0" y="0" fill="url(#SvgjsLinearGradient1030)"></rect><path d="M560 0L432.02 0L560 476.64z" fill="rgba(255, 255, 255, .1)"></path><path d="M432.02 0L560 476.64L560 704.89L254.98 0z" fill="rgba(255, 255, 255, .075)"></path><path d="M254.98000000000002 0L560 704.89L560 990.69L124.03000000000003 0z" fill="rgba(255, 255, 255, .05)"></path><path d="M124.03000000000003 0L560 990.69L560 1020.8000000000001L53.26000000000003 0z" fill="rgba(255, 255, 255, .025)"></path><path d="M0 1440L203.2 1440L0 1418.9z" fill="rgba(0, 0, 0, .1)"></path><path d="M0 1418.9L203.2 1440L364.42999999999995 1440L0 1130.92z" fill="rgba(0, 0, 0, .075)"></path><path d="M0 1130.92L364.42999999999995 1440L419.49999999999994 1440L0 679.1000000000001z" fill="rgba(0, 0, 0, .05)"></path><path d="M0 679.0999999999999L419.49999999999994 1440L458.29999999999995 1440L0 624.2299999999999z" fill="rgba(0, 0, 0, .025)"></path></g><defs><mask id="SvgjsMask1029"><rect width="560" height="1440" fill="#ffffff"></rect></mask><linearGradient x1="50%" y1="0%" x2="50%" y2="100%" gradientUnits="userSpaceOnUse" id="SvgjsLinearGradient1030"><stop stop-color="#0e2a47" offset="0"></stop><stop stop-color="#00459e" offset="1"></stop></linearGradient></defs></svg>